<svg xmlns="http://www.w3.org/2000/svg" width="135" height="27" fill="none" viewBox="0 0 135 27">
  <path fill="#0576F7" d="M132.043 8.015c.777.432 1.365.889 1.709 1.727.102 1.233-.403 2.059-1.121 3.002l-.279.382c-.271.372-.546.74-.822 1.107-.272.37-.542.741-.812 1.112-.162.22-.162.22-.328.442-.259.325-.259.325-.227.692.309.287.637.543.968.805 1.136 1.15 1.84 2.687 2.589 4.107l.303.57c1.042 1.96 1.042 1.96.926 2.982-.484.828-1.141 1.432-2.051 1.727-.927.125-1.6.206-2.381-.366-.546-.478-.861-1-1.2-1.647l-.174-.327c-.182-.342-.361-.685-.54-1.028l-.544-1.028c-.164-.31-.327-.621-.49-.933-.635-1.107-.635-1.107-1.68-1.753a7.742 7.742 0 0 0-.774-.117c-1.274-.13-2.318.968-2.348 2.25l-.014.782c-.006.377-.015.753-.024 1.13l-.014.685c-.096.811-.323 1.412-.918 1.974-.964.561-2.214.508-3.281.31-.617-.21-.914-.506-1.202-1.07-.355-.761-.41-1.412-.4-2.245l-.003-.427c-.002-.463.001-.925.004-1.388l-.001-.972c0-.677.002-1.354.006-2.031.005-.866.005-1.73.002-2.596-.001-.668.001-1.337.003-2.005v-.957c-.001-.447.002-.894.006-1.34l-.002-.395c.013-.992.172-1.98.826-2.758.609-.519 1.363-.452 2.119-.468l.362-.02c.661-.01 1.086.051 1.616.467.753.812.832 1.469.822 2.563l-.001.345c-.002.361-.006.722-.011 1.082l-.004.738-.003.438a1.341 1.341 0 0 0 1.339 1.361c.642 0 1.249-.327 1.6-.866.761-1.17 1.535-2.32 2.313-3.45l.225-.326c.138-.202.275-.404.411-.608.934-1.359 1.854-2.092 3.5-1.659Zm-31.909-.065.677-.015c.719.091.983.249 1.481.77.349.563.384 1 .381 1.658v.586l-.005.63-.002.648-.008 1.7c-.004.58-.005 1.159-.007 1.738l-.005 1.145c-.003.826.955 1.199 1.442.532.1-.137.173-.28.277-.421l.318-.434a391.82 391.82 0 0 1 3.458-4.614c.273-.361.542-.725.81-1.09.39-.53.793-1.047 1.205-1.56l.299-.404c.541-.616 1.007-.823 1.807-.913.277-.015.555-.026.832-.032l.406-.013c.545.013.942.027 1.378.376.759.887.775 1.683.778 2.799l.004.454.007 1.488.002.513c.003.898.006 1.795.007 2.692.002.927.008 1.852.015 2.779.004.712.006 1.425.006 2.138l.006 1.024c.005.478.004.956.003 1.435l.007.424c-.009.972-.214 1.543-.771 2.34-.834.462-1.805.444-2.735.346-.832-.29-1.151-.595-1.538-1.381-.069-.472-.069-.472-.074-.986l-.011-.587-.003-.628-.009-.647a318.53 318.53 0 0 1-.018-1.696c-.005-.578-.013-1.155-.021-1.733-.014-1.104-1.419-1.569-2.085-.688l-1.583 2.096-.35.463a311.88 311.88 0 0 0-1.83 2.451 101.402 101.402 0 0 1-1.739 2.29c-.604.689-1.124 1.017-2.046 1.087-1.902.04-1.902.04-2.497-.332-.799-.83-.777-1.692-.776-2.788l-.003-.46c-.004-.5-.004-1-.005-1.502l-.003-1.046c-.002-.73-.003-1.46-.003-2.191 0-.935-.004-1.87-.01-2.806-.004-.72-.005-1.44-.004-2.16 0-.345-.002-.69-.005-1.035-.003-.482-.002-.964 0-1.447l-.006-.43c.01-.911.172-1.432.773-2.153.64-.431 1.01-.403 1.773-.41ZM4.668.023c.205 0 .41 0 .621-.002a435.28 435.28 0 0 1 1.7 0L8.822.018C10.02.016 11.218.016 12.415.016h3.34l.844-.001c2.638-.002 5.277-.002 7.915 0 2.414 0 4.828-.002 7.242-.005 2.48-.004 4.959-.005 7.438-.004 1.391 0 2.783 0 4.175-.003a1014.2 1014.2 0 0 1 3.553 0h1.813c.655-.003 1.31-.001 1.965 0L51.279 0c1.085.008 1.899.079 2.744.84.618.787.766 1.312.765 2.298l.001.5-.002.546v.577l-.002 1.89-.001 1.31c0 1.032-.002 2.064-.004 3.096l-.004 3.525c-.001 2.104-.004 4.207-.007 6.31 0 .52.42.94.94.94h.183a.805.805 0 0 0 .767-1.047c-.83-2.75-.77-5.69.438-8.334 1.25-2.31 3.101-3.703 5.564-4.484 2.872-.747 6.098-.47 8.713.947a8.391 8.391 0 0 1 2.523 2.454c.3.442 1.084.258 1.092-.277.038-1.03.197-1.883.805-2.731.63-.424 1.12-.41 1.848-.41.12-.005.24-.01.362-.013l.357-.002.321-.005c.779.182 1.286.645 1.763 1.272l.351.578.195.318c.208.34.412.683.615 1.025l.208.347c.495.828.983 1.66 1.47 2.493l.43.735.788 1.346.177.301c.122.214.242.43.36.646.31.627.31.627.84 1.042l.134-.366c.23-.55.506-1.047.805-1.563l.178-.306c.19-.328.38-.655.572-.982l.197-.338a231.637 231.637 0 0 1 2.506-4.218l.236-.393c.482-.776.929-1.355 1.697-1.853a6.5 6.5 0 0 1 1.379-.097l.36-.006c.575.009.97.089 1.477.368.843.96.963 2.062.954 3.29l.002.428c.002.463.001.925 0 1.388v.972c.001.677 0 1.354-.002 2.031-.003.866-.001 1.73.002 2.596.002.669.001 1.337 0 2.005l.001.957c.001.447 0 .894-.003 1.34l.003.395c-.011.925-.196 1.627-.583 2.47-.692.466-1.228.415-2.04.421l-.42.017c-1.024.01-1.024.01-1.558-.508-.346-.608-.45-.927-.461-1.626l-.01-.524-.01-.567-.01-.58-.031-1.837-.023-1.243c-.015-.875-1.17-1.184-1.62-.433l-.02.033c-2.372 3.971-2.372 3.971-3.199 4.429-.699.127-1.092.175-1.697-.211-.959-.832-1.55-1.744-2.16-2.855l-.545-.97-.27-.48c-.418-.724-1.506-.415-1.52.422l-.006.42c-.006.366-.01.733-.015 1.1a210.22 210.22 0 0 1-.024 1.585l-.003.491c-.023 1.02-.124 1.998-.597 2.916-.692.466-1.228.415-2.041.421l-.42.017c-1.021.01-1.021.01-1.557-.497-.357-.64-.452-1.136-.481-1.86l-.022-.514-.02-.536-.022-.542c-.014-.342-.51-.454-.691-.163-1.197 1.91-2.872 3.279-5.081 4.06-2.763.837-6.077.515-8.619-.785a8.671 8.671 0 0 1-1.113-.74c-.41-.324-1.07-.13-1.134.39a1.478 1.478 0 0 1-1.437 1.298c-.33.006-.658.009-1.054.006l-.665-.001-.72-.007-.767-.003c-.69-.003-1.381-.009-2.072-.014-.724-.006-1.447-.01-2.17-.014-1.215-.008-2.428-.017-3.642-.027-1.404-.01-2.808-.02-4.212-.027-1.352-.008-2.703-.017-4.054-.027a826.61 826.61 0 0 0-1.725-.01c-.676-.004-1.352-.01-2.029-.016l-.745-.004c-.338-.002-.677-.005-1.015-.01l-.575-.003c-.465-.047-.465-.047-.978-.392-.112-.532-.08-1.077-.075-1.62l-.01-.451c0-1.085 0-1.085.378-1.65.879-.567 1.916-.445 2.923-.435a1.568 1.568 0 0 0 1.577-1.56c.009-1.968.015-3.935.02-5.902.002-1.157.006-2.313.012-3.47.005-1.116.008-2.231.01-3.346 0-.427.003-.853.005-1.28.004-.595.005-1.19.004-1.786l.006-.538-.002-.49.001-.428c-.079-.456-.216-.602-.576-.881-.768-.259-1.337-.321-2.091-.02-3.38 2.19-6.77 4.563-9.909 7.033-.365.287-.731.57-1.098.855l-.834.65-.397.307-.377.295-.334.26c-.88.696-.88.696-1.306 1.698v.616l-.004.341c-.004.371 0 .742.002 1.113l-.006.777c-.004.682-.005 1.364-.003 2.045 0 1.09-.005 2.18-.011 3.27-.002.378 0 .758 0 1.137l-.001.704v.616c-.062.87-.163 1.538-.739 2.21-.662.366-1.25.373-1.986.368l-.449.004c-.488.004-.976.003-1.465.001l-1.021.003c-.713.002-1.427.002-2.14-.001-.913-.003-1.825.001-2.737.007-.703.004-1.406.004-2.11.002-.336 0-.672.001-1.008.004-.472.003-.943 0-1.414-.004l-.417.007c-1.014-.017-1.721-.323-2.504-.98-.394-.794-.242-1.858-.265-2.738l-.01-.383c-.1-3.648-.105-7.297-.108-10.946a784.261 784.261 0 0 0-.01-3.006C.012 7.78.01 7.001.01 6.221c0-.37-.001-.74-.004-1.11C.003 4.6.004 4.087.005 3.575L0 3.118C.006 2.3.06 1.77.579 1.105 1.756-.052 3.122.018 4.669.023Zm37.044 5.778c-1.145 1.575-1.035 3.344-1.024 5.212v.872c0 .606.002 1.211.005 1.817.004.776.004 1.553.003 2.329 0 .598 0 1.197.002 1.795v.859c0 .4.003.799.005 1.198l.003.688c.068.876.815 1.49 1.694 1.48.165-.002.33-.006.496-.004 1.225.011 2.45.027 3.675.032l.425.01.401-.002c1.359.012 1.683-1.15 1.667-2.333l.003-.478c.003-.52 0-1.042-.004-1.563l.001-1.085c0-.758-.002-1.516-.006-2.274-.006-.973-.005-1.946-.002-2.918.002-.748 0-1.494-.002-2.241V8.118c.001-.5-.002-1.001-.007-1.502l.003-.451c-.003-.793-.003-.793-.413-1.438-.789-.362-1.684-.248-2.534-.243l-.594-.01c-1.486 0-2.74.201-3.797 1.327Zm21.432 7.05c-1.101 1.19-1.364 2.808-1.432 4.404.074 1.668.345 3.404 1.603 4.578.987.736 1.865.944 3.077.863 1.082-.255 2.001-.59 2.622-1.57 1.127-2.085 1.149-4.218.632-6.487-.333-1.088-.87-1.821-1.854-2.382-1.63-.705-3.268-.553-4.648.594Z"/>
</svg>
