<svg xmlns="http://www.w3.org/2000/svg" width="145" height="44" fill="none" viewBox="0 0 145 44">
  <g clip-path="url(#a)">
    <path fill="#fff" fill-rule="evenodd" d="M.058.163h43.185v43.67H30.991V10.752H12.317c-.01 11.03.025 22.064-.018 33.093-4.08-.029-8.159-.003-12.238-.01V.163H.058Zm49.339.003h12.212V25.75C68.368 17.227 75.083 8.667 81.857.155c3.662.018 7.324.004 10.99.008 0 14.556.007 29.113 0 43.67-4.068-.003-8.137 0-12.209 0V18.248C73.88 26.77 67.16 35.325 60.394 43.84c-3.666-.015-7.331 0-10.994-.008V.166h-.003ZM99 .163h12.255c0 6.132-.003 12.26 0 18.393 5.077-6.125 10.106-12.29 15.197-18.4 4.786.007 9.573.01 14.359 0-5.903 7.076-11.835 14.126-17.749 21.192 7.397 7.495 14.794 14.986 22.191 22.482-5.559 0-11.114-.011-16.672.004-5.773-5.944-11.531-11.898-17.333-17.811v17.803H98.997V.156L99 .162Z" clip-rule="evenodd"/>
  </g>
  <defs>
    <clipPath id="a">
      <path fill="#fff" d="M0 0h145v44H0z"/>
    </clipPath>
  </defs>
</svg>
