<svg xmlns="http://www.w3.org/2000/svg" width="189" height="48" fill="none" viewBox="0 0 189 48">
  <g clip-path="url(#a)">
    <path fill="#fff" fill-rule="evenodd" d="M5.357 23.142c1.668 2.065 4.514 4.27 8.541 4.27 5.91 0 6.88-4.956 7.018-6.887l-10.489.62v-7.436l10.49.623c-.07-2.277-1.182-7.099-7.157-7.099-2.846 0-5.35 1.1-7.502 3.377L1.116 5.093C5.913 1.034 11.187 0 14.036 0c6.88 0 17.508 2.894 17.508 16.877 0 13.984-9.45 17.769-17.847 17.769-5.767 0-9.518-2-13.693-6.2l5.356-5.301-.003-.003ZM35.567 8.33V.757H61.69V8.33h-8.34v25.559h-9.444V8.329h-8.34Zm31.188-3.713C73.01.209 78.985 0 81.205 0c12.648 0 13.408 8.059 13.408 11.778v9.987c0 3.03.625 5.236 3.61 5.028v7.23a8.281 8.281 0 0 1-3.261.623c-1.737 0-5.143-.203-7.222-3.726-3.129 2.414-6.32 3.726-10.91 3.726-8.193 0-11.253-4.682-11.253-9.573 0-9.164 8.2-12.127 19.587-12.398.069-3.86-.899-5.1-4.929-5.1-2.918 0-6.949 1.38-9.588 3.237l-3.892-6.195ZM85.164 19.22c-5.695-.069-9.864 1.788-9.864 5.028 0 1.996 1.73 2.822 3.75 2.822 1.873 0 4.38-1.377 6.114-2.62v-5.23Zm36.883.411c-4.234-.206-4.234 1.583-6.528 6.34-2.013 4.13-4.448 8.678-10.212 8.678a9.938 9.938 0 0 1-3.472-.623v-7.23c3.192-.206 3.06-1.309 4.995-4.545 2.714-4.754 4.725-5.99 6.538-6.268-2.916-.822-4.031-2.55-4.936-3.86-1.388-2.064-2.638-3.993-4.862-3.993-.277 0-.56 0-.839.072V.692C103.57.209 104.612 0 106.136 0c5.139 0 7.64 3.305 10.634 8.059 1.52 2.408 2.639 4.545 5.274 4.336V.757h9.446v11.638c2.642.209 3.745-1.931 5.284-4.336C139.759 3.305 142.262 0 147.399 0c1.526 0 2.575.209 3.399.692v7.507c-.274-.072-.55-.072-.824-.072-2.224 0-3.477 1.928-4.866 3.994-.904 1.308-2.01 3.037-4.932 3.86 1.804.277 3.823 1.516 6.535 6.267 1.941 3.236 1.806 4.34 4.998 4.545v7.23a9.969 9.969 0 0 1-3.478.623c-5.758 0-8.193-4.548-10.203-8.679-2.294-4.756-2.294-6.545-6.534-6.339v14.258h-9.447V19.628v.003Zm57.519-13.775v-5.1H189V33.89h-9.434V17.01l-11.19 12.124v4.754h-9.446V.757h9.446v17.288l11.19-12.189ZM2.296 48H1.38v-7.24h.917v.745c.157-.24.6-.866 1.587-.866 1.727 0 2.412 1.383 2.412 2.644 0 1.131-.584 2.726-2.35 2.726a2.17 2.17 0 0 1-1.649-.713V48Zm1.555-2.87c1.005 0 1.395-.943 1.395-1.847 0-1.096-.587-1.782-1.43-1.782-.888 0-1.52.717-1.52 1.817 0 .657.233 1.813 1.555 1.813Zm7.907-.143a2.743 2.743 0 0 1-2.151 1.022c-1.558 0-2.583-1.187-2.583-2.648 0-1.557 1-2.722 2.429-2.722 1.715 0 2.346 1.535 2.302 2.865H8.08c-.022.658.286 1.71 1.524 1.71.653 0 1.02-.23 1.573-.778l.578.548.003.003Zm-1.04-2.274c-.043-.448-.276-1.286-1.297-1.286-1.02 0-1.237.738-1.294 1.286h2.592Zm3.085 3.175h-.917v-5.127H16.2v.791h-2.396v4.336Zm6.67-4.318v-.81h.92v5.128h-.92v-3.174l-2.416 2.417v.757h-.917v-5.127h.917v3.227l2.416-2.417Zm4.721-.931c1.294 0 2.683.912 2.683 2.635 0 1.034-.534 2.735-2.683 2.735s-2.67-1.679-2.67-2.735c0-1.723 1.382-2.635 2.67-2.635Zm0 4.579c1.386 0 1.627-1.209 1.627-1.932 0-.495-.191-1.856-1.627-1.856-1.354 0-1.615 1.243-1.615 1.856 0 .408.05 1.932 1.615 1.932Zm4.728.67h-.92v-5.127h.92v1.962h2.416v-1.962h.917v5.127h-.917v-2.373h-2.416v2.373Zm4.832-4.502c.766-.604 1.504-.747 2.038-.747 1.93 0 1.939 1.67 1.939 2v1.89c0 .396.09.627.534.648v.835c-.754 0-1.144-.352-1.326-.748-.569.405-1.1.748-1.866.748-1.175 0-1.684-.713-1.684-1.495 0-1.601 1.552-1.81 3.427-1.879.054-1.043-.603-1.208-1.121-1.208-.39 0-.855.19-1.508.617l-.43-.658-.003-.003Zm.688 3.128c0 .352.25.691.85.691.453 0 1.12-.274 1.521-.89v-.923c-1.957-.043-2.372.67-2.372 1.119v.003Zm6.166.122c-.44 1.209-1.115 1.374-1.574 1.374-.106 0-.207 0-.32-.013v-.813c.883-.053 1.093-.866 1.21-1.448.175-.922.25-2.143.276-2.978h3.289v5.13h-.92v-4.336h-1.483c-.026.966-.167 2.227-.478 3.084Zm5.315-3.876v1.55h1.087c1.772 0 2.083.89 2.083 1.712 0 1.131-.434 1.866-2.224 1.866h-1.863v-5.13h.917v.003Zm1.018 4.337c.933 0 1.1-.492 1.1-.987 0-.437-.098-1.01-1.1-1.01h-1.018v1.997h1.018Zm4.156.791h-.917v-5.127h.917v1.962h2.416v-1.962h.92v5.127h-.92v-2.373h-2.416v2.373Zm7.137-5.249c1.298 0 2.68.912 2.68 2.635 0 1.034-.53 2.735-2.68 2.735-2.148 0-2.673-1.679-2.673-2.735 0-1.723 1.385-2.635 2.673-2.635Zm0 4.579c1.386 0 1.628-1.209 1.628-1.932 0-.495-.192-1.856-1.628-1.856-1.35 0-1.617 1.243-1.617 1.856 0 .408.053 1.932 1.617 1.932Zm8.14-.231a2.748 2.748 0 0 1-2.152 1.022c-1.561 0-2.582-1.187-2.582-2.648 0-1.557.995-2.722 2.425-2.722 1.718 0 2.35 1.535 2.309 2.865h-3.679c-.025.658.286 1.71 1.527 1.71.653 0 1.018-.23 1.577-.778l.575.548v.003Zm-1.043-2.274c-.041-.448-.277-1.286-1.298-1.286-1.02 0-1.237.738-1.294 1.286h2.592Zm4.719-1.327c.766-.604 1.507-.747 2.038-.747 1.929 0 1.938 1.67 1.938 2v1.89c0 .396.088.627.531.648v.835c-.754 0-1.14-.352-1.326-.748-.568.405-1.096.748-1.866.748-1.171 0-1.683-.713-1.683-1.495 0-1.601 1.548-1.81 3.424-1.879.056-1.043-.6-1.208-1.122-1.208-.386 0-.851.19-1.504.617l-.434-.658.003-.003Zm.69 3.128c0 .352.255.691.855.691.452 0 1.115-.274 1.517-.89v-.923c-1.96-.043-2.372.67-2.372 1.119v.003Zm5.715 1.374h-.917v-5.127h3.314v.791h-2.397v4.336Zm7.665-.901a2.748 2.748 0 0 1-2.152 1.022c-1.562 0-2.58-1.187-2.58-2.648 0-1.557.996-2.722 2.426-2.722 1.715 0 2.35 1.535 2.306 2.865h-3.676c-.022.658.286 1.71 1.527 1.71.653 0 1.018-.23 1.574-.778l.575.548v.003Zm-1.04-2.274c-.044-.448-.277-1.286-1.294-1.286-1.018 0-1.238.738-1.295 1.286h2.592-.003Zm3.088 3.175h-.918v-5.127h.918v1.962h2.415v-1.962h.918v5.127h-.918v-2.373h-2.415v2.373Zm5.897-4.336h-1.552v-.791h4.02v.791h-1.548v4.336h-.92v-4.336Zm7.639 3.392c-.675.956-1.517 1.062-2.051 1.062-1.819 0-2.516-1.318-2.516-2.613 0-1.66 1.121-2.757 2.66-2.757.591 0 1.216.183 1.851.788l-.534.642c-.409-.4-.83-.642-1.404-.642-.842 0-1.518.582-1.518 1.956 0 1.13.534 1.832 1.505 1.832.597 0 .942-.25 1.385-.788l.622.517v.003Zm2.039-3.392h-1.552v-.791h4.025v.791h-1.552v4.336h-.921v-4.336Zm3.481-.792h1.96c.367 0 1.715.023 1.715 1.266 0 .47-.298 1.009-.864 1.14.654.056 1.21.495 1.21 1.242 0 1.315-1.106 1.483-1.885 1.483h-2.136v-5.13Zm1.696 2.054c.393 0 .927-.038.927-.714 0-.573-.581-.548-.927-.548h-.779v1.265h.779v-.003Zm.151 2.283c.6 0 1.118-.053 1.118-.788 0-.505-.352-.704-1.118-.704h-.93v1.492h.93Zm5.573-4.458c1.297 0 2.683.912 2.683 2.635 0 1.034-.534 2.735-2.683 2.735s-2.67-1.679-2.67-2.735c0-1.723 1.385-2.635 2.67-2.635Zm0 4.579c1.385 0 1.627-1.209 1.627-1.932 0-.495-.188-1.856-1.627-1.856-1.351 0-1.615 1.243-1.615 1.856 0 .408.05 1.932 1.615 1.932Zm7.313.67h-.92v-5.127h.92v1.962h2.416v-1.962h.914v5.127h-.914v-2.373h-2.416v2.373Zm9.192-.901a2.758 2.758 0 0 1-2.152 1.022c-1.561 0-2.582-1.187-2.582-2.648 0-1.557.999-2.722 2.428-2.722 1.718 0 2.35 1.535 2.306 2.865h-3.679c-.022.658.286 1.71 1.527 1.71.653 0 1.018-.23 1.574-.778l.578.548v.003Zm-1.04-2.274c-.044-.448-.28-1.286-1.298-1.286-1.017 0-1.24.738-1.294 1.286h2.595-.003Zm2.57 4.683h-.918v-2.287h.663c.277-.34.754-1.143.754-3.13V40.76h3.434v4.348h.754v2.287h-.918V45.9h-3.766v1.495h-.003Zm3.012-5.844h-1.599c.01 1.8-.135 2.723-.597 3.557h2.196v-3.557Zm2.68-.792h1.96c.365 0 1.716.023 1.716 1.266 0 .47-.299 1.009-.864 1.14.653.056 1.209.495 1.209 1.242 0 1.315-1.106 1.483-1.882 1.483h-2.139v-5.13Zm1.696 2.054c.396 0 .93-.038.93-.714 0-.573-.587-.548-.93-.548h-.775v1.265h.775v-.003Zm.154 2.283c.597 0 1.116-.053 1.116-.788 0-.505-.355-.704-1.116-.704h-.929v1.492h.929Zm6.632-3.527v-.81h.92v5.128h-.92v-3.174l-2.413 2.417v.757h-.92v-5.127h.92v3.227l2.413-2.417Zm5.174 1.956h-.186c-.766 0-.864.396-1.319 1.166-.449.769-.584 1.317-1.426 1.317a1.23 1.23 0 0 1-.377-.056v-.779c.066.01.135.01.188 0 .465-.096.456-1.295 1.916-2.108-.499-.044-.697-.309-.951-.67-.494-.692-.635-.891-1.012-.925h-.141v-.78c.141-.033.32-.055.502-.055.541 0 .874.405 1.213.912.613.9.622 1.197 1.596 1.187v-1.978h.92v1.978c.663.013.82-.056 1.197-.582.452-.651.82-1.514 1.615-1.514.132 0 .301 0 .502.065v.767h-.144c-.38.03-.522.233-1.008.925-.28.395-.5.638-.952.67.584.33.719.46 1.099 1.055.371.58.471 1.11 1.009 1.053v.78c-.136.043-.236.043-.381.043-.562 0-.741-.097-1.429-1.305-.44-.77-.553-1.166-1.319-1.166h-.186v2.362h-.92v-2.361h-.006Zm8.51-1.956v-.81h.917v5.128h-.917v-3.174l-2.416 2.417v.757h-.92v-5.127h.92v3.227l2.416-2.417Zm3.364.3v4.018h-.921v-5.127h1.276l1.461 3.196 1.467-3.196h1.272v5.127h-.92V41.87l-1.486 3.214h-.663l-1.486-3.214Zm8.356-1.231c1.295 0 2.677.912 2.677 2.635 0 1.034-.531 2.735-2.677 2.735-2.145 0-2.673-1.679-2.673-2.735 0-1.723 1.385-2.635 2.673-2.635Zm0 4.579c1.386 0 1.628-1.209 1.628-1.932 0-.495-.189-1.856-1.628-1.856-1.357 0-1.618 1.243-1.618 1.856 0 .408.054 1.932 1.618 1.932Zm7.976-.274c-.675.956-1.514 1.062-2.048 1.062-1.816 0-2.516-1.318-2.516-2.613 0-1.66 1.125-2.757 2.658-2.757.59 0 1.218.183 1.85.788l-.531.642c-.412-.4-.829-.642-1.407-.642-.842 0-1.518.582-1.518 1.956 0 1.13.531 1.832 1.505 1.832.6 0 .942-.25 1.385-.788l.619.517.003.003Zm2.036-3.392h-1.549v-.791h4.018v.791h-1.549v4.336h-.92v-4.336Zm6.811.018v-.81h.92v5.128h-.92v-3.174l-2.413 2.417v.757h-.92v-5.127h.92v3.227l2.413-2.417Z" clip-rule="evenodd"/>
  </g>
  <defs>
    <clipPath id="a">
      <path fill="#fff" d="M0 0h189v48H0z"/>
    </clipPath>
  </defs>
</svg>
