<svg xmlns="http://www.w3.org/2000/svg" width="160" height="60" fill="none" viewBox="0 0 160 60">
  <g clip-path="url(#a)">
    <path fill="#fff" d="M92.809 30.145H3.788C1.698 30.145 0 31.802 0 33.84v22.466C0 58.344 1.693 60 3.788 60h89.02c2.09 0 3.788-1.656 3.788-3.694V33.84c0-2.038-1.693-3.695-3.787-3.695ZM21.736 53.858h-4.254l2.645-12.425h-6.479l-2.672 12.425H6.72l3.513-16.406h15.015l-3.513 16.406Zm19.796 0h-4.277l2.673-12.448H35.5c-.471 2.002-1.012 4.486-1.581 6.875-1.064 4.367-2.892 5.573-6.456 5.573H25.56l.868-4.1h.84c1.436 0 2.252-.604 2.644-2.147a308.595 308.595 0 0 0 2.3-10.154h12.836l-3.512 16.405-.005-.004Zm20.491.241c-4.426 0-7.272-2.461-7.346-6.465H52.13l-1.334 6.224h-4.254l3.512-16.406h4.254l-1.334 6.201h2.323c1.162-3.521 4.082-6.442 9.175-6.442 4.627 0 7.37 2.607 7.37 6.683 0 4.968-2.869 10.205-9.819 10.205Zm19.735-3.762c1.834 0 3.242-1.038 3.956-2.58l4.156.746c-1.287 3.449-3.909 5.596-8.433 5.596-4.231 0-7.1-2.557-7.1-6.633 0-5.018 3.116-10.255 9.525-10.255 4.329 0 6.726 2.125 6.927 5.596l-4.352.7c-.173-1.423-1.063-2.533-2.943-2.533-2.944 0-4.8 2.943-4.8 6.032 0 2.125 1.19 3.33 3.064 3.33Z"/>
    <path fill="#fff" d="M64.122 40.978c-3.14 0-5.07 3.017-5.07 6.033 0 2.002 1.31 3.33 3.316 3.33 3.242 0 5.094-2.87 5.094-5.96 0-2.051-1.19-3.403-3.34-3.403ZM64.192.41l-5.7 14.84L52.745.41h-7.127V20.2h4.277V5.15l5.952 15.05h4.697l5.957-15.132V20.2h4.566V.41h-6.875Zm36.728 0h15.724V20.2h-4.865V4.578h-6.414c-.042 2.78-.126 6.502-.21 8.59-.168 5.191-1.716 7.034-6.287 7.034h-2.183V16.03h1.217c2.052 0 2.724-.897 2.85-3.722.126-3.025.168-9.04.168-11.902m40.59.004H160v4.167h-6.833V20.2h-4.823V4.577h-6.834V.409ZM30.3 16.747c-1.903-.055-3.003-1.128-3.003-2.489 0-1.123.517-1.678 1.208-2.065.718-.41 1.655-.55 3.11-.605 1.4-.05 2.538-.11 4.707-.11 0 3.381-2.178 5.078-4.883 5.255-.43.028-.69.023-1.139.01M33.035 0h-1.74c-4.184 0-7.351 2.484-8.079 6.174l4.445.696c.607-1.76 2.006-2.957 3.774-3.04.569-.027.434-.017 1.003 0 2.626.092 3.81 1.32 3.81 4.355-4.976 0-8.377-.228-10.877 1.378-2.043 1.315-2.92 2.77-2.92 5.073 0 3.33 2.659 5.974 6.95 5.974h.593c3.032 0 5.476-1.151 6.474-2.539v2.134h4.478V8.275c0-4.603-2.528-8.27-7.911-8.27m96.805 3.821c.508-.028.69-.028 1.198 0 2.118.104 4.352 1.446 4.567 4.117h-10.439c.242-2.384 2.206-3.985 4.674-4.117Zm10.546 7.816V9.79c0-6.387-4.114-9.69-9.427-9.69h-1.04c-5.714 0-9.362 3.803-9.553 9.167a28.13 28.13 0 0 0 0 2.184c.135 5.341 3.97 8.93 9.096 9.063.937.027.816.022 1.702 0 4.464-.123 7.841-2.635 8.84-5.92l-4.32-.736c-1.054 2.056-3.069 2.848-4.678 2.925-.509.027-.583.018-1.092 0-2.523-.1-4.781-2.03-4.781-4.832v-.314h15.244l.009.005Zm-49.806.141c-.057 2.798-2.147 4.695-4.95 4.836-.536.027-.504.027-1.045 0-2.836-.136-4.893-2.038-4.949-4.836a53.032 53.032 0 0 1 0-2.985c.056-2.77 2.113-4.667 4.95-4.804.536-.027.503-.027 1.044 0 2.803.137 4.893 2.038 4.95 4.836a52.065 52.065 0 0 1 0 2.957m4.78-3.23C95.253 3.767 91.293.1 86.055.1h-1.899c-5.233 0-9.194 3.667-9.305 8.485a70.801 70.801 0 0 0 0 3.448c.107 4.818 4.072 8.485 9.305 8.485h1.899c5.233 0 9.193-3.667 9.305-8.485a71.738 71.738 0 0 0 0-3.471m-80.448 4.654c-.564 1.834-2.08 3.094-4.11 3.371a6.329 6.329 0 0 1-1.637-.004c-2.528-.346-4.31-2.193-4.36-4.795a53.068 53.068 0 0 1 0-2.985c.055-2.62 1.921-4.536 4.496-4.8a6.55 6.55 0 0 1 1.255-.009c2.168.228 3.796 1.497 4.38 3.421l4.71-.887C18.634 2.766 15.142.1 10.676.1H9.325C4.091.1.13 3.767.018 8.58a84.995 84.995 0 0 0 0 3.449c.108 4.818 4.068 8.485 9.306 8.485h1.353c4.552 0 8.074-2.771 9.007-6.661l-4.772-.637Z"/>
  </g>
  <defs>
    <clipPath id="a">
      <path fill="#fff" d="M0 0h160v60H0z"/>
    </clipPath>
  </defs>
</svg>
