<svg xmlns="http://www.w3.org/2000/svg" width="214" height="50" fill="none" viewBox="0 0 214 50">
  <g clip-path="url(#a)">
    <path fill="#fff" fill-rule="evenodd" d="M209.676 49.953h-7.965a7.05 7.05 0 0 1-2.798-.462 6.981 6.981 0 0 1-2.378-1.524 6.82 6.82 0 0 1-1.561-2.334 6.73 6.73 0 0 1-.486-2.754v-32.77h5.548v30.11c0 1.461.214 2.947 1.161 3.479a6.384 6.384 0 0 0 2.783.332h5.085V10.108h5.544v39.845h-4.933Zm.1-44.966-2.753.082h-4.86l-2.737-.068a.86.86 0 0 0-.298-.047c-2.635-.29-2.34-3.226-2.34-4.969h15.523c.004 1.79.184 4.734-2.535 5.002Zm-29.153 44.966h-6.698a7.05 7.05 0 0 1-2.795-.464 6.969 6.969 0 0 1-2.373-1.523 6.822 6.822 0 0 1-1.56-2.33 6.747 6.747 0 0 1-.488-2.75V17.214a6.768 6.768 0 0 1 .487-2.751 6.84 6.84 0 0 1 1.559-2.332 6.961 6.961 0 0 1 2.375-1.524c.889-.342 1.84-.5 2.795-.464h6.698a7.038 7.038 0 0 1 2.794.463 6.97 6.97 0 0 1 2.376 1.524 6.845 6.845 0 0 1 1.561 2.332c.353.875.517 1.811.487 2.752v25.672c.03.94-.136 1.876-.489 2.75a6.823 6.823 0 0 1-1.561 2.33 6.96 6.96 0 0 1-2.374 1.523 7.03 7.03 0 0 1-2.794.463Zm1.673-30.12c0-1.458-.214-2.945-1.161-3.478a6.403 6.403 0 0 0-2.786-.328h-2.15a6.4 6.4 0 0 0-2.785.328c-.948.533-1.161 2.024-1.161 3.477V40.21c0 1.46.211 2.945 1.161 3.479a6.475 6.475 0 0 0 2.785.327h2.15a6.48 6.48 0 0 0 2.786-.327c.949-.534 1.161-2.025 1.161-3.479V19.832ZM153.482 33.82h-7.348v16.135h-5.547V10.14h12.895a7.045 7.045 0 0 1 2.795.463c.89.342 1.698.861 2.375 1.525a6.845 6.845 0 0 1 1.561 2.331c.352.875.518 1.811.486 2.752v9.535a6.754 6.754 0 0 1-.486 2.752 6.842 6.842 0 0 1-1.56 2.332 6.967 6.967 0 0 1-2.375 1.525 7.05 7.05 0 0 1-2.796.464Zm1.67-13.983c0-1.462-.216-2.948-1.158-3.477a6.355 6.355 0 0 0-2.783-.332h-5.077v11.893h5.072a6.4 6.4 0 0 0 2.788-.33c.948-.53 1.158-2.016 1.158-3.47v-4.284Zm-27.471 30.118h-5.55V16.027h-7.29V10.11h20.131v5.917h-7.291v33.928Zm-23.907 0h-5.62a7.048 7.048 0 0 1-2.793-.465 6.965 6.965 0 0 1-2.374-1.523 6.843 6.843 0 0 1-1.56-2.33 6.763 6.763 0 0 1-.487-2.75V17.222c-.03-.94.136-1.875.488-2.749a6.846 6.846 0 0 1 1.56-2.33 6.966 6.966 0 0 1 2.373-1.522c.89-.342 1.84-.5 2.793-.465h5.62a7.045 7.045 0 0 1 2.793.465c.889.341 1.697.86 2.373 1.523a6.835 6.835 0 0 1 1.56 2.33c.353.873.519 1.809.488 2.748v3.322h-5.542v-.712c0-1.459-.22-2.944-1.16-3.477a6.407 6.407 0 0 0-2.781-.327h-1.08a6.394 6.394 0 0 0-2.78.327c-.948.533-1.158 2.024-1.158 3.477v20.381c0 1.46.209 2.943 1.159 3.477.89.31 1.84.421 2.779.326h1.08c.94.095 1.89-.016 2.781-.326.948-.534 1.16-2.024 1.16-3.477v-.662h5.542v3.334a6.762 6.762 0 0 1-.487 2.75 6.838 6.838 0 0 1-1.56 2.33 6.967 6.967 0 0 1-2.374 1.524c-.889.342-1.839.5-2.793.464v.002ZM77.778 33.627H68.77v16.26h-5.58V10.103h5.581v17.595h9.008V10.102h5.544v39.784h-5.544v-16.26ZM48.343 49.955h-6.7a7.047 7.047 0 0 1-2.793-.465 6.967 6.967 0 0 1-2.374-1.523 6.844 6.844 0 0 1-1.56-2.33 6.763 6.763 0 0 1-.487-2.75V17.215a6.76 6.76 0 0 1 .486-2.75 6.847 6.847 0 0 1 1.56-2.332 6.965 6.965 0 0 1 2.374-1.524c.889-.343 1.84-.5 2.794-.465h6.7a7.047 7.047 0 0 1 2.796.463c.89.342 1.699.86 2.376 1.524a6.843 6.843 0 0 1 1.56 2.332c.353.875.519 1.811.487 2.752v25.672c.03.94-.135 1.876-.488 2.75a6.84 6.84 0 0 1-1.561 2.33 6.962 6.962 0 0 1-2.375 1.523c-.89.342-1.84.5-2.795.463v.002Zm1.674-30.118c0-1.462-.217-2.948-1.162-3.477a6.357 6.357 0 0 0-2.782-.332h-2.175a6.353 6.353 0 0 0-2.783.332c-.948.53-1.161 2.015-1.161 3.477V40.21c0 1.46.213 2.946 1.161 3.477a6.44 6.44 0 0 0 2.783.33h2.174a6.445 6.445 0 0 0 2.783-.33c.949-.53 1.162-2.024 1.162-3.477V19.835v.002ZM5.432 44.03h.386V17.184a6.762 6.762 0 0 1 .485-2.755 6.843 6.843 0 0 1 1.563-2.334 6.964 6.964 0 0 1 2.378-1.525 7.047 7.047 0 0 1 2.799-.462h12.9V44.03h.436c3.497 0 5.145 2.628 5.074 5.917H.355c-.07-3.289 1.58-5.917 5.077-5.917v.001Zm5.915 0h9.044V16.027H15.29a6.377 6.377 0 0 0-2.786.328c-.948.533-1.162 2.024-1.162 3.48V44.03l.005.001Z" clip-rule="evenodd"/>
  </g>
  <defs>
    <clipPath id="a">
      <path fill="#fff" d="M0 0h214v50H0z"/>
    </clipPath>
  </defs>
</svg>
