<svg xmlns="http://www.w3.org/2000/svg" width="161" height="60" fill="none" viewBox="0 0 161 60">
  <g clip-path="url(#a)">
    <path fill="#fff" d="M0 60h161V0H0v60Z"/>
    <path fill="#0576F7" d="M128.183 33.098v1.532c0 1.287 1.195 2.47 3.071 2.47 2.69 0 3.77-1.978 3.991-2.807l6.018-.002c-.897 2.714-4.595 5.936-11.396 5.936-8.863 0-11.642-4.671-11.642-8.242 0-3.808 3.211-8.34 11.628-8.34 7.277 0 11.627 4.104 11.627 8.342a8.22 8.22 0 0 1-.061 1.11h-13.236Zm0-2.576h3.372v-2.1c0-.635-.52-1.64-1.697-1.64-1.092 0-1.675.963-1.675 1.63v2.11Zm-24.695 5.684h-2.396v3.286h16.188v-3.286h-2.428V19.493h-13.76v3.289h2.396v13.424ZM86.81 33.098v1.532c0 1.287 1.197 2.47 3.073 2.47 2.689 0 3.77-1.978 3.99-2.807l6.02-.002c-.897 2.714-4.597 5.936-11.396 5.936-8.865 0-11.642-4.671-11.642-8.242 0-3.808 3.207-8.34 11.629-8.34 7.274 0 11.627 4.104 11.627 8.342a8.09 8.09 0 0 1-.062 1.11h-13.24Zm0-2.576h3.373v-2.1c0-.635-.52-1.64-1.698-1.64-1.09 0-1.675.963-1.675 1.63v2.11Zm-15.27-8.965-1.566-2.902-4.946 2.482 1.566 2.93 4.946-2.51Zm1.966 2.9H60.208v3.288h2.424v8.46h-2.424v3.287h15.724v-3.286h-2.426v-11.75Zm-27.583-4.964h12.103v3.29H55.6v13.423h2.426v3.286h-15.73v-3.286h2.428v-8.7l-8.937 11.986-8.97-11.986v8.7h2.427v3.286h-8.696v-3.286h2.398V22.783h-2.398v-3.29H34.28l5.836 7.804 5.807-7.804Z"/>
  </g>
  <defs>
    <clipPath id="a">
      <rect width="161" height="60" fill="#fff" rx="1"/>
    </clipPath>
  </defs>
</svg>
