<svg xmlns="http://www.w3.org/2000/svg" width="180" height="60" fill="none" viewBox="0 0 180 60">
  <g clip-path="url(#a)">
    <path fill="#fff" d="M139.136 35.866a8.76 8.76 0 0 1-6.483 2.862c-4.845 0-8.776-3.91-8.776-8.73 0-4.821 3.931-8.732 8.776-8.732 1.893 0 3.643.604 5.079 1.62l4.782-6.694a17.03 17.03 0 0 0-9.861-3.143c-9.409 0-17.036 7.588-17.036 16.948 0 9.361 7.627 16.949 17.036 16.949 4.351 0 8.308-1.64 11.323-4.307l-4.834-6.773h-.006Zm-38.741-21.812-4.765 6.678c4.723.476 8.409 4.445 8.409 9.27 0 5.15-4.197 9.32-9.367 9.32V5.687h-7.935v7.36c-9.409 0-17.036 7.589-17.036 16.95 0 9.36 7.627 16.948 17.036 16.948v7.63h7.935v-7.63c9.409 0 17.036-7.588 17.036-16.948 0-7.36-4.723-13.605-11.313-15.949m-23.03 15.948c0-5.148 4.197-9.318 9.367-9.318v18.637c-5.17 0-9.367-4.17-9.367-9.319Zm80.163 16.274h-8.669V13.726h8.669v32.542Zm1.101-16.272 11.728-16.271h9.02l-11.823 16.038L180 46.269h-9.148l-12.223-16.271ZM23.557 17.81h34.145A30.17 30.17 0 0 0 39.853 1.598L23.557 17.81Z"/>
    <path fill="#fff" d="M59.378 22.59H17.759a2.398 2.398 0 0 1-2.218-1.477 2.38 2.38 0 0 1 .521-2.603L34.37.296A30.713 30.713 0 0 0 30.157 0C13.499 0 0 13.43 0 29.997c0 2.218.25 4.376.707 6.461h42.066c.973 0 1.845.582 2.218 1.477a2.38 2.38 0 0 1-.522 2.603l-19.168 19.07a30.49 30.49 0 0 0 4.845.392C46.8 60 60.298 46.57 60.298 30.003a29.97 29.97 0 0 0-.93-7.414h.01Z"/>
    <path fill="#fff" d="M36.98 41.236H2.198c3.202 7.874 9.659 14.086 17.716 16.98l17.068-16.98Z"/>
  </g>
  <defs>
    <clipPath id="a">
      <path fill="#fff" d="M0 0h180v60H0z"/>
    </clipPath>
  </defs>
</svg>
