<svg xmlns="http://www.w3.org/2000/svg" width="40" height="40" fill="none" viewBox="0 0 40 40">
  <path fill="#fff" fill-rule="evenodd" d="M2.812 2.812C0 5.624 0 10.149 0 19.2v1.6c0 9.051 0 13.576 2.812 16.388C5.624 40 10.149 40 19.2 40h1.6c9.051 0 13.576 0 16.388-2.812C40 34.376 40 29.851 40 20.8v-1.6c0-9.051 0-13.576-2.812-16.388C34.376 0 29.851 0 20.8 0h-1.6C10.149 0 5.624 0 2.812 2.812Zm3.938 9.355c.217 10.4 5.417 16.65 14.533 16.65h.517v-5.95c3.35.333 5.883 2.783 6.9 5.95h4.733c-1.3-4.734-4.716-7.35-6.85-8.35 2.134-1.234 5.134-4.234 5.85-8.3h-4.3c-.933 3.3-3.7 6.3-6.333 6.583v-6.583h-4.3V23.7c-2.667-.667-6.033-3.9-6.183-11.533H6.75Z" clip-rule="evenodd"/>
</svg>
