<svg xmlns="http://www.w3.org/2000/svg" width="40" height="29" fill="none" viewBox="0 0 40 29">
  <path fill="#fff" d="M39.602 6.07s-.391-2.758-1.594-3.968C36.484.508 34.78.5 34 .406 28.406 0 20.008 0 20.008 0h-.016S11.594 0 6 .406C5.219.5 3.516.508 1.992 2.102.79 3.312.406 6.07.406 6.07S0 9.312 0 12.547v3.031c0 3.235.398 6.477.398 6.477s.391 2.758 1.586 3.968c1.524 1.594 3.524 1.54 4.414 1.711 3.204.305 13.602.399 13.602.399s8.406-.016 14-.414c.781-.094 2.484-.102 4.008-1.696 1.203-1.21 1.594-3.968 1.594-3.968S40 18.82 40 15.578v-3.031c0-3.235-.398-6.477-.398-6.477ZM15.867 19.258V8.016l10.805 5.64-10.805 5.602Z"/>
</svg>
