<svg xmlns="http://www.w3.org/2000/svg" width="385" height="234" fill="none" viewBox="0 0 385 234">
  <g clip-path="url(#a)">
    <rect width="385" height="234" fill="#0576F7" rx="10"/>
    <path stroke="#CEE5FF" stroke-linecap="round" stroke-linejoin="round" stroke-width="16" d="M30-43C37 2.5 65.5 82 142.5 86.5c73.289 4.283 100-27.5 105-44s-12.8-37-34-9-18.697 51.694 6 67.5c24.697 15.806 137.322 60.565 151-21.5 5-30-26.5-22.84-37.5-18-22.444 9.875-78 65.5-23 110.5 44 36 111.667 9.667 140-8M295 277.959c-7-45.5-35.5-125-112.5-129.5-73.289-4.283-100 27.5-105 44s12.8 37 34 9 18.697-51.694-6-67.5c-24.697-15.806-137.322-60.565-151 21.5-5 30 26.5 22.84 37.5 18 22.444-9.875 78-65.5 23-110.5-44-36-111.667-9.667-140 8"/>
  </g>
  <defs>
    <clipPath id="a">
      <path fill="#fff" d="M0 0h385v234H0z"/>
    </clipPath>
  </defs>
</svg>
