<svg xmlns="http://www.w3.org/2000/svg" width="385" height="234" fill="none" viewBox="0 0 385 234">
  <g clip-path="url(#a)">
    <rect width="385" height="234" fill="#015ABF" rx="10"/>
    <path stroke="#CEE5FF" stroke-linecap="round" stroke-linejoin="round" stroke-width="16" d="M0 140.811c8.215 8.554 27.592 20.529 39.38 0 14.733-25.662 29.199-44.64 56.523-31.81 27.324 12.831 18.216 41.166 14.733 46.512-3.482 5.346-35.628 41.166-25.18 45.71 10.447 4.544 22.769-35.819 54.916-28.869 25.717 5.56 44.647 27.443 50.898 37.69 2.589 4.188 9.108 10.853 14.466 4.01 5.357-6.843-3.483-17.464-8.573-21.919-14.733-12.119-38.254-41.808-14.466-63.62 23.789-21.813 40.808-13.009 46.345-5.881 2.411 2.227 7.822 4.811 10.179-2.673 2.358-7.485-11.519-19.158-18.752-24.058-12.59-8.91-31.61-32.612-6.965-56.136 24.646-23.523 47.594-6.415 55.988 5.08 5.715 12.028 23.788 31.435 50.363 12.83 26.574-18.605 45.183-10.069 51.166-3.475 9.554 7.841 22.93 28.602 0 48.918-22.931 20.316-16.341 31.097-10.18 33.948 4.643 1.783 14.787.161 18.216-20.582 3.429-20.744 27.503-27.355 39.111-28.068 17.234-2.139 52.666 4.598 56.524 48.65 3.857 44.053-29.467 58.631-46.612 60.413-12.501 1.96-30.7 8.019-3.483 16.573"/>
  </g>
  <defs>
    <clipPath id="a">
      <path fill="#fff" d="M0 0h385v234H0z"/>
    </clipPath>
  </defs>
</svg>
